<svg width="16" height="16" viewBox="0 0 16 16" fill="none" xmlns="http://www.w3.org/2000/svg">
<path fill-rule="evenodd" clip-rule="evenodd" d="M13.78 4.21983C13.9204 4.36045 13.9993 4.55108 13.9993 4.74983C13.9993 4.94858 13.9204 5.1392 13.78 5.27983L6.52997 12.5298C6.38934 12.6702 6.19872 12.7491 5.99997 12.7491C5.80122 12.7491 5.61059 12.6702 5.46997 12.5298L2.21997 9.27983C2.08749 9.13765 2.01537 8.94961 2.01879 8.7553C2.02222 8.561 2.10093 8.37562 2.23835 8.2382C2.37576 8.10079 2.56115 8.02208 2.75545 8.01865C2.94975 8.01522 3.13779 8.08735 3.27997 8.21983L5.99997 10.9398L12.72 4.21983C12.8606 4.07938 13.0512 4.00049 13.25 4.00049C13.4487 4.00049 13.6394 4.07938 13.78 4.21983Z" fill="white"/>
</svg>
